<svg xmlns="http://www.w3.org/2000/svg" xmlns:xlink="http://www.w3.org/1999/xlink" id="Layer_2" data-name="Layer 2" viewBox="0 0 700.6 221.85">
  <defs>
    <style>
      .cls-1 {
        fill: url(#linear-gradient-12);
      }

      .cls-1, .cls-2, .cls-3, .cls-4, .cls-5, .cls-6, .cls-7, .cls-8, .cls-9, .cls-10, .cls-11, .cls-12, .cls-13 {
        stroke-width: 0px;
      }

      .cls-2 {
        fill: url(#linear-gradient);
      }

      .cls-3 {
        fill: url(#linear-gradient-6);
      }

      .cls-5 {
        fill: url(#linear-gradient-11);
      }

      .cls-6 {
        fill: url(#linear-gradient-5);
      }

      .cls-7 {
        fill: url(#linear-gradient-2);
      }

      .cls-8 {
        fill: url(#linear-gradient-7);
      }

      .cls-9 {
        fill: url(#linear-gradient-3);
      }

      .cls-10 {
        fill: url(#linear-gradient-9);
      }

      .cls-11 {
        fill: url(#linear-gradient-8);
      }

      .cls-12 {
        fill: url(#linear-gradient-10);
      }

      .cls-13 {
        fill: url(#linear-gradient-4);
      }
    </style>
    <linearGradient id="linear-gradient" x1="72.89" y1="52.36" x2="105.61" y2="52.36" gradientUnits="userSpaceOnUse">
      <stop offset="0" stop-color="#000"/>
      <stop offset=".86" stop-color="#a9a9a9" stop-opacity=".34"/>
      <stop offset=".99" stop-color="#fff" stop-opacity="0"/>
    </linearGradient>
    <linearGradient id="linear-gradient-2" x1="105.61" y1="52.36" x2="138.01" y2="52.36" gradientUnits="userSpaceOnUse">
      <stop offset="0" stop-color="#000"/>
      <stop offset=".1" stop-color="#3a3a3a" stop-opacity=".77"/>
      <stop offset=".99" stop-color="#fff" stop-opacity="0"/>
    </linearGradient>
    <linearGradient id="linear-gradient-3" y1="353.59" y2="353.59" gradientTransform="translate(0 523.08) scale(1 -1)" xlink:href="#linear-gradient"/>
    <linearGradient id="linear-gradient-4" y1="353.59" y2="353.59" gradientTransform="translate(0 523.08) scale(1 -1)" xlink:href="#linear-gradient-2"/>
    <linearGradient id="linear-gradient-5" x1="133.1" y1="132" x2="187.09" y2="132" gradientUnits="userSpaceOnUse">
      <stop offset="0" stop-color="#000"/>
      <stop offset=".99" stop-color="#fff" stop-opacity="0"/>
    </linearGradient>
    <linearGradient id="linear-gradient-6" y1="91.02" y2="91.02" xlink:href="#linear-gradient-5"/>
    <linearGradient id="linear-gradient-7" x1="-1044.33" x2="-990.34" gradientTransform="translate(-968.46) rotate(-180) scale(1 -1)" xlink:href="#linear-gradient-5"/>
    <linearGradient id="linear-gradient-8" x1="-1044.33" y1="91.02" x2="-990.34" y2="91.02" gradientTransform="translate(-968.46) rotate(-180) scale(1 -1)" xlink:href="#linear-gradient-5"/>
    <linearGradient id="linear-gradient-9" x1="82.81" y1="92.15" x2="118.93" y2="92.15" gradientUnits="userSpaceOnUse">
      <stop offset="0" stop-color="#000"/>
      <stop offset=".99" stop-color="#fff" stop-opacity="0"/>
    </linearGradient>
    <linearGradient id="linear-gradient-10" x1="104.48" y1="98.41" x2="126.16" y2="98.41" gradientUnits="userSpaceOnUse">
      <stop offset="0" stop-color="#000"/>
      <stop offset=".14" stop-color="#707070" stop-opacity=".56"/>
      <stop offset=".99" stop-color="#fff" stop-opacity="0"/>
    </linearGradient>
    <linearGradient id="linear-gradient-11" x1="-1626.75" y1="850.01" x2="-1590.63" y2="850.01" gradientTransform="translate(-1500.59 979.7) rotate(-180)" xlink:href="#linear-gradient-9"/>
    <linearGradient id="linear-gradient-12" x1="-1605.07" y1="856.27" x2="-1583.4" y2="856.27" gradientTransform="translate(-1500.59 979.7) rotate(-180)" xlink:href="#linear-gradient-10"/>
  </defs>
  <g>
    <path class="cls-4" d="m207.14,138.87v-7.12l28.31-39.72h-28.36v-9.89h43.43v7.12l-28.34,39.72h28.39v9.89h-43.43Z"/>
    <path class="cls-4" d="m289.85,82.14v56.73h-11.99v-56.73h11.99Z"/>
    <path class="cls-4" d="m311.32,114.27v24.6h-11.8v-42.55h11.25v7.51h.5c.94-2.47,2.52-4.44,4.74-5.89s4.9-2.17,8.06-2.17c2.95,0,5.53.65,7.73,1.94,2.2,1.29,3.91,3.13,5.12,5.53,1.22,2.39,1.83,5.24,1.83,8.54v27.09h-11.8v-24.98c.02-2.6-.65-4.64-2-6.11s-3.2-2.2-5.57-2.2c-1.59,0-2.99.34-4.2,1.02-1.21.68-2.15,1.68-2.83,2.98-.67,1.3-1.02,2.87-1.04,4.7Z"/>
    <path class="cls-4" d="m359.82,114.27v24.6h-11.8v-42.55h11.25v7.51h.5c.94-2.47,2.52-4.44,4.74-5.89s4.9-2.17,8.06-2.17c2.95,0,5.53.65,7.73,1.94,2.2,1.29,3.91,3.13,5.12,5.53,1.22,2.39,1.83,5.24,1.83,8.54v27.09h-11.8v-24.98c.02-2.6-.65-4.64-1.99-6.11-1.35-1.47-3.2-2.2-5.57-2.2-1.59,0-2.99.34-4.2,1.02-1.21.68-2.15,1.68-2.83,2.98-.67,1.3-1.02,2.87-1.04,4.7Z"/>
    <path class="cls-4" d="m415.74,139.7c-4.3,0-8.02-.92-11.15-2.76-3.13-1.84-5.54-4.4-7.24-7.7-1.7-3.3-2.55-7.12-2.55-11.48s.85-8.24,2.55-11.54c1.7-3.3,4.11-5.86,7.24-7.7,3.13-1.84,6.85-2.76,11.15-2.76s8.02.92,11.15,2.76c3.13,1.84,5.54,4.4,7.24,7.7,1.7,3.3,2.55,7.14,2.55,11.54s-.85,8.18-2.55,11.48c-1.7,3.3-4.11,5.86-7.24,7.7-3.13,1.84-6.85,2.76-11.15,2.76Zm.06-9.14c1.96,0,3.59-.56,4.9-1.68s2.3-2.65,2.98-4.58c.67-1.94,1.01-4.15,1.01-6.62s-.34-4.68-1.01-6.62c-.67-1.94-1.67-3.47-2.98-4.6-1.31-1.13-2.95-1.69-4.9-1.69s-3.63.56-4.97,1.69c-1.34,1.13-2.35,2.66-3.02,4.6-.67,1.94-1.01,4.15-1.01,6.62s.34,4.68,1.01,6.62c.67,1.94,1.68,3.47,3.02,4.58,1.34,1.12,3,1.68,4.97,1.68Z"/>
    <path class="cls-4" d="m482.64,96.33l-14.88,42.55h-13.29l-14.88-42.55h12.46l8.84,30.44h.44l8.81-30.44h12.49Z"/>
    <path class="cls-4" d="m499.62,139.67c-2.71,0-5.13-.48-7.26-1.43-2.12-.95-3.8-2.36-5.03-4.24-1.23-1.87-1.84-4.21-1.84-7.02,0-2.36.43-4.35,1.3-5.96.87-1.61,2.05-2.9,3.54-3.88,1.5-.98,3.2-1.72,5.11-2.22,1.91-.5,3.92-.85,6.02-1.05,2.47-.26,4.47-.5,5.98-.73,1.51-.23,2.61-.58,3.3-1.04s1.03-1.14,1.03-2.05v-.17c0-1.75-.55-3.11-1.65-4.07-1.1-.96-2.65-1.44-4.67-1.44-2.12,0-3.81.47-5.07,1.4s-2.09,2.1-2.49,3.5l-10.91-.89c.55-2.58,1.64-4.82,3.27-6.72s3.73-3.35,6.3-4.38c2.58-1.02,5.56-1.54,8.96-1.54,2.36,0,4.63.28,6.8.83,2.17.55,4.1,1.41,5.79,2.58s3.02,2.65,4,4.47c.98,1.82,1.47,3.99,1.47,6.52v28.7h-11.19v-5.9h-.33c-.68,1.33-1.6,2.5-2.74,3.5-1.14,1.01-2.52,1.79-4.13,2.35-1.61.56-3.46.85-5.57.85Zm3.38-8.14c1.74,0,3.27-.35,4.6-1.04,1.33-.69,2.37-1.63,3.13-2.81.76-1.18,1.14-2.52,1.14-4.02v-4.51c-.37.24-.87.46-1.51.65-.64.19-1.35.37-2.15.53-.79.16-1.59.29-2.38.42-.79.12-1.51.23-2.16.32-1.38.2-2.59.53-3.63.97-1.04.44-1.84,1.04-2.41,1.79-.57.75-.86,1.68-.86,2.78,0,1.61.59,2.83,1.76,3.67,1.17.84,2.66,1.26,4.47,1.26Z"/>
    <path class="cls-4" d="m555.37,96.33v8.86h-25.62v-8.86h25.62Zm-19.8-10.19h11.8v39.66c0,1.09.17,1.93.5,2.54.33.6.8,1.02,1.4,1.26.6.24,1.3.36,2.09.36.55,0,1.11-.05,1.66-.15s.98-.18,1.27-.24l1.86,8.78c-.59.18-1.42.4-2.49.65-1.07.25-2.37.4-3.91.46-2.84.11-5.33-.27-7.46-1.14-2.13-.87-3.79-2.22-4.97-4.04-1.18-1.83-1.76-4.14-1.75-6.92v-41.22Z"/>
    <path class="cls-4" d="m581.83,139.7c-4.3,0-8.02-.92-11.15-2.76-3.13-1.84-5.54-4.4-7.24-7.7-1.7-3.3-2.55-7.12-2.55-11.48s.85-8.24,2.55-11.54c1.7-3.3,4.11-5.86,7.24-7.7,3.13-1.84,6.85-2.76,11.15-2.76s8.02.92,11.15,2.76c3.13,1.84,5.54,4.4,7.24,7.7,1.7,3.3,2.55,7.14,2.55,11.54s-.85,8.18-2.55,11.48c-1.7,3.3-4.11,5.86-7.24,7.7-3.13,1.84-6.85,2.76-11.15,2.76Zm.06-9.14c1.96,0,3.59-.56,4.9-1.68s2.3-2.65,2.98-4.58c.67-1.94,1.01-4.15,1.01-6.62s-.34-4.68-1.01-6.62c-.67-1.94-1.67-3.47-2.98-4.6-1.31-1.13-2.95-1.69-4.9-1.69s-3.63.56-4.97,1.69c-1.34,1.13-2.35,2.66-3.02,4.6-.67,1.94-1.01,4.15-1.01,6.62s.34,4.68,1.01,6.62c.67,1.94,1.68,3.47,3.02,4.58,1.34,1.12,3,1.68,4.97,1.68Z"/>
    <path class="cls-4" d="m610.47,138.87v-42.55h11.44v7.42h.44c.78-2.64,2.08-4.64,3.91-6s3.93-2.04,6.32-2.04c.59,0,1.23.04,1.91.11.68.07,1.28.18,1.8.3v10.47c-.55-.17-1.32-.31-2.3-.44-.98-.13-1.88-.19-2.69-.19-1.74,0-3.28.37-4.64,1.12-1.36.75-2.43,1.79-3.21,3.12-.79,1.33-1.18,2.86-1.18,4.6v24.07h-11.8Z"/>
    <path class="cls-4" d="m677.75,108.46l-10.8.66c-.19-.92-.58-1.76-1.19-2.51-.61-.75-1.41-1.35-2.4-1.8-.99-.45-2.17-.68-3.53-.68-1.83,0-3.37.38-4.62,1.15-1.26.77-1.88,1.79-1.88,3.06,0,1.02.41,1.88,1.22,2.58.81.7,2.21,1.27,4.18,1.69l7.7,1.55c4.14.85,7.22,2.22,9.25,4.1,2.03,1.88,3.05,4.36,3.05,7.42,0,2.79-.82,5.24-2.45,7.34-1.63,2.11-3.87,3.74-6.7,4.92-2.83,1.17-6.1,1.76-9.79,1.76-5.63,0-10.12-1.18-13.45-3.53-3.33-2.35-5.29-5.56-5.86-9.63l11.61-.61c.35,1.72,1.2,3.02,2.55,3.92,1.35.9,3.07,1.34,5.18,1.34s3.73-.4,5-1.21c1.26-.8,1.91-1.84,1.92-3.12-.02-1.07-.47-1.95-1.36-2.65s-2.25-1.22-4.1-1.59l-7.37-1.47c-4.15-.83-7.24-2.27-9.26-4.32-2.02-2.05-3.03-4.66-3.03-7.84,0-2.73.74-5.09,2.23-7.06,1.49-1.98,3.58-3.5,6.29-4.57,2.71-1.07,5.88-1.61,9.51-1.61,5.37,0,9.61,1.14,12.7,3.41s4.9,5.36,5.42,9.28Z"/>
  </g>
  <g>
    <g>
      <g>
        <polygon class="cls-4" points="125.68 74.77 105.61 55.95 86.87 74.77 72.89 62.76 105.61 29.94 138.01 62.18 125.68 74.77"/>
        <polygon class="cls-2" points="86.87 74.77 105.61 29.94 72.89 62.76 86.87 74.77"/>
        <polygon class="cls-7" points="138.01 62.18 105.61 29.94 125.68 74.77 138.01 62.18"/>
      </g>
      <g>
        <polygon class="cls-4" points="125.68 147.07 105.61 165.89 86.87 147.07 72.89 159.08 105.61 191.9 138.01 159.67 125.68 147.07"/>
        <polygon class="cls-9" points="86.87 147.07 105.61 191.9 72.89 159.08 86.87 147.07"/>
        <polygon class="cls-13" points="138.01 159.67 105.61 191.9 125.68 147.07 138.01 159.67"/>
      </g>
      <g>
        <polygon class="cls-4" points="161.08 111.51 133.1 139.49 146.1 152.5 187.09 111.51 146.11 70.53 133.1 83.54 161.08 111.51"/>
        <polygon class="cls-6" points="133.1 139.49 187.09 111.51 146.1 152.5 133.1 139.49"/>
        <polygon class="cls-3" points="187.09 111.51 133.1 83.54 146.11 70.53 187.09 111.51"/>
      </g>
      <g>
        <polygon class="cls-4" points="47.89 111.51 75.86 139.49 62.87 152.5 21.88 111.51 62.86 70.53 75.86 83.54 47.89 111.51"/>
        <polygon class="cls-8" points="75.86 139.49 21.88 111.51 62.87 152.5 75.86 139.49"/>
        <polygon class="cls-11" points="21.88 111.51 75.86 83.54 62.86 70.53 21.88 111.51"/>
      </g>
    </g>
    <g>
      <g>
        <polygon class="cls-4" points="90.04 85.9 82.81 98.41 97.26 98.41 97.26 98.41 111.71 98.41 104.48 110.92 126.16 98.41 118.93 85.9 104.48 85.9 90.04 85.9"/>
        <polygon class="cls-10" points="90.04 85.9 82.81 98.41 118.93 85.9 90.04 85.9"/>
        <polygon class="cls-12" points="104.48 110.92 126.16 98.41 118.93 85.9 104.48 110.92"/>
      </g>
      <g>
        <polygon class="cls-4" points="118.93 135.95 126.16 123.44 111.71 123.44 111.71 123.44 97.26 123.44 104.49 110.92 82.81 123.44 90.04 135.95 104.49 135.95 118.93 135.95"/>
        <polygon class="cls-5" points="118.93 135.95 126.16 123.44 90.04 135.95 118.93 135.95"/>
        <polygon class="cls-1" points="104.49 110.92 82.81 123.44 90.04 135.95 104.49 110.92"/>
      </g>
    </g>
  </g>
</svg>