<svg id="Layer_2" data-name="Layer 2" xmlns="http://www.w3.org/2000/svg" xmlns:xlink="http://www.w3.org/1999/xlink" viewBox="0 0 400 400">
  <defs>
    <style>
      .cls-1 {
        fill: url(#linear-gradient-12);
      }

      .cls-1, .cls-2, .cls-3, .cls-4, .cls-5, .cls-6, .cls-7, .cls-8, .cls-9, .cls-10, .cls-11, .cls-12, .cls-13 {
        stroke-width: 0px;
      }

      .cls-2 {
        fill: url(#linear-gradient);
      }

      .cls-3 {
        fill: url(#linear-gradient-6);
      }

      .cls-5 {
        fill: url(#linear-gradient-11);
      }

      .cls-6 {
        fill: url(#linear-gradient-5);
      }

      .cls-7 {
        fill: url(#linear-gradient-2);
      }

      .cls-8 {
        fill: url(#linear-gradient-7);
      }

      .cls-9 {
        fill: url(#linear-gradient-3);
      }

      .cls-10 {
        fill: url(#linear-gradient-9);
      }

      .cls-11 {
        fill: url(#linear-gradient-8);
      }

      .cls-12 {
        fill: url(#linear-gradient-10);
      }

      .cls-13 {
        fill: url(#linear-gradient-4);
      }
    </style>
    <linearGradient id="linear-gradient" x1="136.66" y1="82.59" x2="202.25" y2="82.59" gradientUnits="userSpaceOnUse">
      <stop offset="0" stop-color="#000"/>
      <stop offset=".86" stop-color="#a9a9a9" stop-opacity=".34"/>
      <stop offset=".99" stop-color="#fff" stop-opacity="0"/>
    </linearGradient>
    <linearGradient id="linear-gradient-2" x1="202.25" y1="82.59" x2="267.22" y2="82.59" gradientUnits="userSpaceOnUse">
      <stop offset="0" stop-color="#000"/>
      <stop offset=".1" stop-color="#3a3a3a" stop-opacity=".77"/>
      <stop offset=".99" stop-color="#fff" stop-opacity="0"/>
    </linearGradient>
    <linearGradient id="linear-gradient-3" y1="1565.21" y2="1565.21" gradientTransform="translate(0 1882.62) scale(1 -1)" xlink:href="#linear-gradient"/>
    <linearGradient id="linear-gradient-4" y1="1565.21" y2="1565.21" gradientTransform="translate(0 1882.62) scale(1 -1)" xlink:href="#linear-gradient-2"/>
    <linearGradient id="linear-gradient-5" x1="257.38" y1="242.27" x2="365.61" y2="242.27" gradientUnits="userSpaceOnUse">
      <stop offset="0" stop-color="#000"/>
      <stop offset=".99" stop-color="#fff" stop-opacity="0"/>
    </linearGradient>
    <linearGradient id="linear-gradient-6" y1="160.1" y2="160.1" xlink:href="#linear-gradient-5"/>
    <linearGradient id="linear-gradient-7" x1="4972.21" x2="5080.44" gradientTransform="translate(5114.84) rotate(-180) scale(1 -1)" xlink:href="#linear-gradient-5"/>
    <linearGradient id="linear-gradient-8" x1="4972.21" y1="160.1" x2="5080.44" y2="160.1" gradientTransform="translate(5114.84) rotate(-180) scale(1 -1)" xlink:href="#linear-gradient-5"/>
    <linearGradient id="linear-gradient-9" x1="156.55" y1="162.37" x2="228.97" y2="162.37" gradientUnits="userSpaceOnUse">
      <stop offset="0" stop-color="#000"/>
      <stop offset=".99" stop-color="#fff" stop-opacity="0"/>
    </linearGradient>
    <linearGradient id="linear-gradient-10" x1="200" y1="174.91" x2="243.45" y2="174.91" gradientUnits="userSpaceOnUse">
      <stop offset="0" stop-color="#000"/>
      <stop offset=".14" stop-color="#707070" stop-opacity=".56"/>
      <stop offset=".99" stop-color="#fff" stop-opacity="0"/>
    </linearGradient>
    <linearGradient id="linear-gradient-11" x1="4339.26" y1="2101.61" x2="4411.68" y2="2101.61" gradientTransform="translate(4582.71 2339.25) rotate(-180)" xlink:href="#linear-gradient-9"/>
    <linearGradient id="linear-gradient-12" x1="4382.71" y1="2114.16" x2="4426.16" y2="2114.16" gradientTransform="translate(4582.71 2339.25) rotate(-180)" xlink:href="#linear-gradient-10"/>
  </defs>
  <g>
    <g>
      <polygon class="cls-4" points="242.5 127.52 202.25 89.8 164.68 127.52 136.66 103.44 202.25 37.65 267.22 102.27 242.5 127.52"/>
      <polygon class="cls-2" points="164.68 127.52 202.25 37.65 136.66 103.44 164.68 127.52"/>
      <polygon class="cls-7" points="267.22 102.27 202.25 37.65 242.5 127.52 267.22 102.27"/>
    </g>
    <g>
      <polygon class="cls-4" points="242.5 272.48 202.25 310.2 164.68 272.48 136.66 296.56 202.25 362.35 267.22 297.73 242.5 272.48"/>
      <polygon class="cls-9" points="164.68 272.48 202.25 362.35 136.66 296.56 164.68 272.48"/>
      <polygon class="cls-13" points="267.22 297.73 202.25 362.35 242.5 272.48 267.22 297.73"/>
    </g>
    <g>
      <polygon class="cls-4" points="313.47 201.18 257.38 257.28 283.44 283.35 365.61 201.18 283.45 119.02 257.38 145.09 313.47 201.18"/>
      <polygon class="cls-6" points="257.38 257.28 365.61 201.18 283.44 283.35 257.38 257.28"/>
      <polygon class="cls-3" points="365.61 201.18 257.38 145.09 283.45 119.02 365.61 201.18"/>
    </g>
    <g>
      <polygon class="cls-4" points="86.53 201.18 142.62 257.28 116.56 283.35 34.39 201.18 116.55 119.02 142.62 145.09 86.53 201.18"/>
      <polygon class="cls-8" points="142.62 257.28 34.39 201.18 116.56 283.35 142.62 257.28"/>
      <polygon class="cls-11" points="34.39 201.18 142.62 145.09 116.55 119.02 34.39 201.18"/>
    </g>
  </g>
  <g>
    <g>
      <polygon class="cls-4" points="171.03 149.83 156.55 174.91 185.51 174.91 185.52 174.91 214.48 174.91 200 200 243.45 174.91 228.97 149.83 200 149.83 171.03 149.83"/>
      <polygon class="cls-10" points="171.03 149.83 156.55 174.91 228.97 149.83 171.03 149.83"/>
      <polygon class="cls-12" points="200 200 243.45 174.91 228.97 149.83 200 200"/>
    </g>
    <g>
      <polygon class="cls-4" points="228.97 250.17 243.45 225.09 214.49 225.09 214.48 225.09 185.52 225.09 200 200 156.55 225.09 171.03 250.17 200 250.17 228.97 250.17"/>
      <polygon class="cls-5" points="228.97 250.17 243.45 225.09 171.03 250.17 228.97 250.17"/>
      <polygon class="cls-1" points="200 200 156.55 225.09 171.03 250.17 200 200"/>
    </g>
  </g>
</svg>